<svg id="svg" version="1.1" xmlns="http://www.w3.org/2000/svg" xmlns:xlink="http://www.w3.org/1999/xlink" width="400" height="133.33333333333334" viewBox="0, 0, 400,133.33333333333334"><g id="svgg"><path id="path0" d="M30.333 37.333 C 30.333 37.425,30.108 37.500,29.833 37.500 C 29.558 37.500,29.333 37.576,29.333 37.670 C 29.333 37.767,29.159 37.796,28.928 37.738 C 28.626 37.662,28.466 37.726,28.304 37.985 C 28.184 38.176,27.993 38.333,27.879 38.333 C 27.631 38.333,26.000 39.923,26.000 40.164 C 26.000 40.257,25.926 40.333,25.837 40.333 C 25.747 40.333,25.626 40.521,25.568 40.750 C 25.511 40.979,25.392 41.167,25.304 41.167 C 25.216 41.167,25.192 41.317,25.250 41.500 C 25.311 41.691,25.280 41.833,25.178 41.833 C 25.080 41.833,25.000 41.946,25.000 42.083 C 25.000 42.221,24.925 42.333,24.833 42.333 C 24.742 42.333,24.667 42.451,24.667 42.595 C 24.667 42.739,24.554 42.970,24.417 43.107 C 24.279 43.245,24.167 43.577,24.167 43.845 C 24.167 44.114,24.083 44.333,23.981 44.333 C 23.877 44.333,23.833 44.480,23.882 44.667 C 23.930 44.850,23.901 45.042,23.818 45.093 C 23.735 45.144,23.667 45.369,23.667 45.593 C 23.667 45.817,23.590 46.000,23.497 46.000 C 23.399 46.000,23.371 46.176,23.431 46.415 C 23.505 46.707,23.458 46.860,23.275 46.930 C 23.087 47.002,23.041 47.165,23.111 47.515 C 23.172 47.821,23.139 48.000,23.021 48.000 C 22.913 48.000,22.833 48.284,22.833 48.667 C 22.833 49.036,22.752 49.333,22.652 49.333 C 22.534 49.333,22.509 49.559,22.580 49.983 C 22.648 50.382,22.621 50.675,22.512 50.743 C 22.414 50.803,22.333 51.261,22.333 51.760 C 22.333 52.259,22.265 52.667,22.182 52.667 C 22.099 52.667,22.043 53.166,22.057 53.777 C 22.075 54.519,22.016 54.910,21.881 54.956 C 21.734 55.005,21.706 55.379,21.780 56.330 C 21.835 57.049,21.822 57.775,21.750 57.943 C 21.678 58.112,21.601 59.522,21.580 61.076 C 21.554 62.988,21.481 63.923,21.354 63.965 C 21.036 64.071,21.097 73.998,21.420 74.606 C 21.587 74.920,21.638 75.297,21.572 75.708 C 21.501 76.143,21.532 76.333,21.673 76.333 C 21.815 76.333,21.845 76.527,21.772 76.982 C 21.693 77.478,21.728 77.655,21.922 77.729 C 22.099 77.797,22.143 77.952,22.069 78.246 C 22.004 78.506,22.034 78.667,22.149 78.667 C 22.250 78.667,22.333 78.850,22.333 79.073 C 22.333 79.297,22.411 79.529,22.507 79.588 C 22.602 79.646,22.635 79.838,22.579 80.014 C 22.522 80.193,22.556 80.333,22.655 80.333 C 22.753 80.333,22.833 80.483,22.833 80.667 C 22.833 80.850,22.917 81.000,23.019 81.000 C 23.123 81.000,23.167 81.147,23.118 81.333 C 23.062 81.547,23.113 81.667,23.260 81.667 C 23.396 81.667,23.450 81.769,23.394 81.917 C 23.341 82.054,23.372 82.167,23.463 82.167 C 23.619 82.167,23.890 82.775,23.851 83.042 C 23.841 83.110,23.908 83.167,24.000 83.167 C 24.092 83.167,24.167 83.307,24.167 83.480 C 24.167 83.652,24.279 83.886,24.417 84.000 C 24.554 84.114,24.667 84.303,24.667 84.419 C 24.667 84.536,24.779 84.674,24.917 84.727 C 25.054 84.780,25.167 84.941,25.167 85.086 C 25.167 85.231,25.354 85.523,25.583 85.735 C 25.812 85.948,26.000 86.175,26.000 86.240 C 26.000 86.385,26.717 87.159,27.813 88.199 C 28.099 88.470,28.333 88.770,28.333 88.866 C 28.333 88.961,28.483 89.000,28.667 88.952 C 28.850 88.904,29.000 88.922,29.000 88.991 C 29.000 89.250,29.828 90.000,30.117 90.003 C 30.361 90.005,30.372 90.033,30.178 90.156 C 30.001 90.268,30.095 90.336,30.542 90.420 C 30.873 90.482,31.184 90.638,31.233 90.766 C 31.283 90.895,31.421 91.000,31.541 91.000 C 31.661 91.000,31.868 91.150,32.000 91.333 C 32.132 91.517,32.317 91.669,32.412 91.672 C 32.506 91.675,32.883 91.823,33.250 92.000 C 33.617 92.177,34.010 92.325,34.125 92.328 C 34.240 92.331,34.333 92.408,34.333 92.500 C 34.333 92.592,34.446 92.667,34.583 92.667 C 34.721 92.667,34.833 92.750,34.833 92.853 C 34.833 92.961,35.007 93.006,35.250 92.959 C 35.479 92.915,35.667 92.944,35.667 93.023 C 35.667 93.102,35.779 93.167,35.917 93.167 C 36.054 93.167,36.167 93.250,36.167 93.353 C 36.167 93.461,36.340 93.506,36.583 93.459 C 36.813 93.415,37.000 93.444,37.000 93.523 C 37.000 93.602,37.225 93.667,37.500 93.667 C 37.775 93.667,38.000 93.742,38.000 93.833 C 38.000 93.925,38.150 94.000,38.333 94.000 C 38.517 94.000,38.667 94.084,38.667 94.188 C 38.667 94.307,38.848 94.339,39.167 94.275 C 39.449 94.219,39.667 94.246,39.667 94.337 C 39.667 94.427,39.892 94.500,40.167 94.500 C 40.442 94.500,40.667 94.578,40.667 94.674 C 40.667 94.782,40.882 94.808,41.231 94.743 C 41.571 94.679,41.840 94.709,41.907 94.818 C 41.969 94.918,42.315 95.000,42.677 95.000 C 43.039 95.000,43.333 95.081,43.333 95.181 C 43.333 95.299,43.558 95.325,43.977 95.254 C 44.440 95.176,44.691 95.215,44.869 95.392 C 45.056 95.580,45.362 95.617,46.138 95.547 C 46.730 95.493,47.250 95.526,47.372 95.624 C 47.625 95.827,58.923 95.795,59.386 95.590 C 59.553 95.516,60.145 95.497,60.703 95.548 C 61.481 95.618,61.777 95.581,61.971 95.386 C 62.150 95.207,62.406 95.162,62.848 95.233 C 63.233 95.295,63.495 95.264,63.532 95.153 C 63.566 95.053,63.947 94.972,64.380 94.972 C 64.813 94.972,65.167 94.895,65.167 94.801 C 65.167 94.706,65.378 94.660,65.637 94.698 C 65.905 94.737,66.201 94.668,66.323 94.537 C 66.453 94.398,66.696 94.346,66.936 94.407 C 67.179 94.468,67.333 94.433,67.333 94.318 C 67.333 94.203,67.528 94.157,67.827 94.201 C 68.148 94.248,68.352 94.193,68.409 94.042 C 68.466 93.896,68.622 93.849,68.833 93.916 C 69.024 93.977,69.167 93.947,69.167 93.845 C 69.167 93.747,69.354 93.667,69.583 93.667 C 69.813 93.667,70.000 93.584,70.000 93.482 C 70.000 93.370,70.158 93.337,70.399 93.397 C 70.668 93.465,70.829 93.417,70.893 93.252 C 70.947 93.112,71.098 93.048,71.244 93.104 C 71.385 93.158,71.500 93.116,71.500 93.011 C 71.500 92.905,71.594 92.830,71.708 92.844 C 72.034 92.884,72.667 92.644,72.667 92.481 C 72.667 92.400,72.817 92.333,73.000 92.333 C 73.183 92.333,73.333 92.260,73.333 92.170 C 73.333 92.080,73.521 91.959,73.750 91.902 C 73.979 91.844,74.167 91.722,74.167 91.631 C 74.167 91.539,74.268 91.503,74.392 91.551 C 74.515 91.598,74.827 91.456,75.084 91.235 C 75.341 91.014,75.635 90.833,75.736 90.833 C 75.837 90.833,76.016 90.679,76.134 90.491 C 76.280 90.256,76.450 90.181,76.674 90.252 C 76.922 90.331,77.000 90.278,77.000 90.029 C 77.000 89.726,77.410 89.409,77.716 89.476 C 77.973 89.532,80.333 86.989,80.333 86.657 C 80.333 86.456,80.498 86.262,80.750 86.167 C 80.995 86.074,81.167 85.876,81.167 85.689 C 81.167 85.513,81.279 85.326,81.417 85.273 C 81.554 85.220,81.667 85.059,81.667 84.915 C 81.667 84.771,81.811 84.498,81.988 84.308 C 82.164 84.119,82.269 83.859,82.220 83.732 C 82.171 83.604,82.214 83.500,82.316 83.500 C 82.417 83.500,82.500 83.387,82.500 83.250 C 82.500 83.112,82.572 83.000,82.659 83.000 C 82.747 83.000,82.867 82.737,82.928 82.417 C 82.988 82.096,83.101 81.833,83.180 81.833 C 83.259 81.833,83.280 81.721,83.227 81.585 C 83.175 81.448,83.241 81.294,83.375 81.243 C 83.529 81.184,83.589 81.002,83.539 80.742 C 83.492 80.494,83.539 80.333,83.658 80.333 C 83.776 80.333,83.815 80.206,83.756 80.018 C 83.698 79.836,83.764 79.593,83.911 79.447 C 84.051 79.306,84.120 79.073,84.065 78.929 C 84.010 78.785,84.021 78.535,84.091 78.375 C 84.161 78.215,84.244 77.788,84.275 77.427 C 84.307 77.066,84.389 76.728,84.458 76.677 C 84.527 76.625,84.593 75.761,84.605 74.757 C 84.619 73.573,84.692 72.908,84.813 72.868 C 85.097 72.773,85.076 62.220,84.792 62.125 C 84.636 62.073,84.584 61.363,84.587 59.319 C 84.590 57.815,84.529 56.539,84.453 56.484 C 84.377 56.430,84.315 55.813,84.315 55.114 C 84.315 54.409,84.237 53.794,84.141 53.734 C 84.032 53.667,84.008 53.297,84.076 52.751 C 84.162 52.063,84.133 51.856,83.940 51.782 C 83.758 51.712,83.719 51.515,83.786 51.011 C 83.848 50.551,83.814 50.333,83.681 50.333 C 83.549 50.333,83.519 50.151,83.590 49.773 C 83.667 49.364,83.630 49.188,83.451 49.120 C 83.292 49.058,83.236 48.879,83.290 48.596 C 83.335 48.360,83.299 48.167,83.210 48.167 C 83.121 48.167,82.999 47.702,82.940 47.134 C 82.880 46.567,82.768 46.060,82.690 46.009 C 82.612 45.958,82.499 45.652,82.440 45.328 C 82.380 45.004,82.182 44.631,81.999 44.499 C 81.816 44.368,81.667 44.126,81.667 43.963 C 81.667 43.800,81.587 43.667,81.489 43.667 C 81.387 43.667,81.356 43.525,81.417 43.333 C 81.475 43.150,81.448 43.000,81.358 43.000 C 81.267 43.000,81.147 42.791,81.091 42.535 C 81.035 42.280,80.804 41.932,80.578 41.762 C 80.352 41.592,80.167 41.386,80.167 41.303 C 80.167 41.148,79.910 40.801,79.536 40.450 C 79.419 40.340,79.106 40.044,78.841 39.792 C 78.576 39.540,78.278 39.333,78.179 39.333 C 78.081 39.333,78.000 39.260,78.000 39.170 C 78.000 39.080,77.813 38.959,77.583 38.902 C 77.354 38.844,77.167 38.734,77.167 38.656 C 77.167 38.579,76.904 38.466,76.583 38.406 C 76.262 38.345,76.000 38.225,76.000 38.137 C 76.000 38.049,75.859 38.022,75.686 38.077 C 75.498 38.137,75.338 38.085,75.285 37.948 C 75.228 37.798,75.021 37.746,74.682 37.796 C 74.399 37.837,74.167 37.806,74.166 37.727 C 74.166 37.648,73.079 37.583,71.750 37.583 C 70.421 37.583,69.333 37.646,69.333 37.723 C 69.333 37.800,69.033 37.812,68.667 37.750 C 68.228 37.676,68.000 37.699,68.000 37.819 C 68.000 37.918,67.813 38.000,67.583 38.000 C 67.354 38.000,67.167 38.065,67.167 38.145 C 67.167 38.225,66.867 38.339,66.500 38.397 C 66.133 38.456,65.833 38.578,65.833 38.669 C 65.833 38.759,65.683 38.833,65.500 38.833 C 65.317 38.833,65.167 38.913,65.167 39.010 C 65.167 39.107,65.092 39.140,65.000 39.083 C 64.908 39.027,64.833 39.060,64.833 39.157 C 64.833 39.254,64.711 39.333,64.561 39.333 C 64.411 39.333,64.114 39.521,63.902 39.750 C 63.690 39.979,63.431 40.167,63.326 40.167 C 63.063 40.167,61.717 41.577,61.586 41.992 C 61.526 42.180,61.405 42.333,61.317 42.333 C 61.229 42.333,61.107 42.461,61.047 42.618 C 60.987 42.774,60.839 43.018,60.718 43.159 C 60.596 43.301,60.503 43.479,60.510 43.554 C 60.516 43.630,60.378 43.817,60.201 43.971 C 60.025 44.124,59.828 44.419,59.763 44.625 C 59.697 44.831,59.574 45.000,59.489 45.000 C 59.403 45.000,59.333 45.112,59.333 45.250 C 59.333 45.387,59.250 45.500,59.149 45.500 C 59.047 45.500,59.003 45.600,59.050 45.722 C 59.097 45.845,58.955 46.080,58.734 46.246 C 58.514 46.411,58.333 46.630,58.333 46.732 C 58.333 47.093,55.869 49.500,55.499 49.500 C 55.408 49.500,55.333 49.573,55.333 49.661 C 55.333 49.750,55.213 49.777,55.067 49.720 C 54.920 49.664,54.742 49.711,54.672 49.824 C 54.471 50.150,51.000 50.198,51.000 49.875 C 51.000 49.697,50.886 49.659,50.583 49.735 C 50.343 49.795,50.167 49.768,50.167 49.670 C 50.167 49.576,50.054 49.500,49.917 49.500 C 49.779 49.500,49.667 49.433,49.667 49.351 C 49.667 49.270,49.496 49.160,49.288 49.108 C 49.080 49.056,48.746 48.860,48.545 48.673 C 48.345 48.486,48.119 48.333,48.044 48.333 C 47.969 48.333,47.787 48.202,47.641 48.042 C 47.494 47.881,47.147 47.579,46.870 47.369 C 46.007 46.717,43.021 43.662,42.912 43.320 C 42.856 43.141,42.758 43.026,42.696 43.063 C 42.542 43.157,42.162 42.727,42.288 42.601 C 42.343 42.545,42.311 42.500,42.216 42.500 C 42.048 42.500,41.037 41.679,40.163 40.833 C 39.523 40.213,38.713 39.667,38.435 39.667 C 38.300 39.667,38.142 39.519,38.085 39.339 C 38.019 39.132,37.771 38.972,37.407 38.904 C 37.092 38.845,36.833 38.722,36.833 38.630 C 36.833 38.539,36.721 38.508,36.583 38.560 C 36.446 38.613,36.333 38.584,36.333 38.495 C 36.333 38.406,36.183 38.333,36.000 38.333 C 35.817 38.333,35.667 38.258,35.667 38.167 C 35.667 38.075,35.517 38.000,35.333 38.000 C 35.150 38.000,35.000 37.922,35.000 37.826 C 35.000 37.717,34.781 37.693,34.417 37.761 C 34.096 37.821,33.833 37.803,33.833 37.719 C 33.833 37.636,33.411 37.559,32.896 37.547 C 32.380 37.534,31.877 37.444,31.779 37.346 C 31.553 37.120,30.333 37.109,30.333 37.333 M265.333 39.655 C 264.921 39.730,264.527 39.759,264.458 39.719 C 264.390 39.679,264.333 39.726,264.333 39.823 C 264.333 39.921,264.188 40.000,264.010 40.000 C 263.832 40.000,263.637 40.080,263.576 40.178 C 263.516 40.276,263.373 40.320,263.259 40.276 C 263.145 40.233,262.833 40.375,262.567 40.592 C 262.301 40.810,261.955 40.991,261.798 40.994 C 261.483 41.001,260.667 41.803,260.667 42.105 C 260.667 42.211,260.549 42.343,260.405 42.398 C 260.229 42.466,260.179 42.610,260.252 42.841 C 260.312 43.029,260.289 43.273,260.201 43.383 C 259.760 43.936,259.885 48.057,260.352 48.345 C 260.440 48.399,260.463 48.569,260.404 48.722 C 260.332 48.911,260.384 49.000,260.567 49.000 C 260.905 49.000,261.794 49.780,261.924 50.191 C 261.978 50.361,262.167 50.500,262.345 50.500 C 262.522 50.500,262.667 50.579,262.667 50.677 C 262.667 50.774,262.750 50.801,262.852 50.738 C 262.954 50.675,263.085 50.693,263.144 50.777 C 263.689 51.563,269.682 51.718,270.613 50.970 C 270.722 50.883,271.040 50.805,271.322 50.797 C 271.603 50.789,271.833 50.719,271.833 50.641 C 271.833 50.564,271.907 50.500,271.998 50.500 C 272.229 50.500,273.927 48.785,273.869 48.609 C 273.843 48.530,273.889 48.379,273.972 48.274 C 274.055 48.169,274.219 47.783,274.336 47.417 C 274.453 47.050,274.631 46.695,274.732 46.628 C 274.861 46.542,274.853 46.504,274.708 46.503 C 274.434 46.499,274.427 44.973,274.700 44.700 C 274.829 44.571,274.836 44.500,274.722 44.500 C 274.624 44.500,274.446 44.144,274.327 43.708 C 274.209 43.273,274.011 42.769,273.889 42.588 C 273.767 42.407,273.667 42.155,273.667 42.028 C 273.667 41.695,272.968 41.006,272.626 41.003 C 272.467 41.001,272.247 40.857,272.138 40.683 C 272.030 40.509,271.841 40.405,271.720 40.451 C 271.599 40.498,271.500 40.449,271.500 40.344 C 271.500 40.238,271.406 40.167,271.292 40.186 C 271.177 40.204,270.971 40.177,270.833 40.124 C 269.889 39.766,269.229 39.651,267.756 39.589 C 266.836 39.550,265.746 39.580,265.333 39.655 M279.167 63.734 C 279.167 74.774,279.121 83.925,279.066 84.070 C 278.974 84.307,279.622 84.333,285.649 84.333 L 292.335 84.333 292.292 64.042 L 292.250 43.750 285.708 43.706 L 279.167 43.663 279.167 63.734 M365.445 43.792 C 365.404 43.860,365.276 44.610,365.161 45.458 C 365.047 46.306,364.907 47.000,364.851 47.000 C 364.796 47.000,364.745 47.431,364.739 47.958 C 364.733 48.485,364.598 49.854,364.437 51.000 C 364.167 52.930,364.045 53.822,363.737 56.125 C 363.673 56.606,363.555 57.000,363.475 57.000 C 363.395 57.000,363.376 57.290,363.432 57.644 C 363.492 58.015,363.455 58.440,363.345 58.644 C 363.154 59.001,362.833 59.130,362.833 58.850 C 362.833 58.768,362.571 58.438,362.250 58.117 C 361.929 57.796,361.667 57.413,361.667 57.267 C 361.667 57.120,361.550 57.000,361.407 57.000 C 361.167 57.000,360.270 56.256,359.465 55.388 C 359.280 55.188,359.025 55.065,358.898 55.114 C 358.771 55.162,358.667 55.119,358.667 55.018 C 358.667 54.916,358.589 54.833,358.493 54.833 C 358.118 54.833,356.673 54.071,356.670 53.872 C 356.668 53.730,356.530 53.695,356.250 53.765 C 356.021 53.822,355.833 53.797,355.833 53.709 C 355.833 53.620,355.627 53.543,355.375 53.537 C 355.123 53.531,354.429 53.430,353.833 53.312 C 352.447 53.038,349.233 53.036,347.833 53.309 C 347.238 53.425,346.581 53.523,346.375 53.527 C 346.169 53.532,346.000 53.611,346.000 53.704 C 346.000 53.796,345.853 53.834,345.673 53.787 C 345.493 53.740,345.257 53.808,345.148 53.939 C 345.039 54.071,344.872 54.152,344.777 54.120 C 344.682 54.088,344.468 54.198,344.302 54.365 C 344.136 54.531,343.887 54.667,343.750 54.667 C 343.613 54.667,343.500 54.747,343.500 54.845 C 343.500 54.947,343.358 54.977,343.166 54.916 C 342.944 54.846,342.798 54.898,342.731 55.072 C 342.676 55.216,342.489 55.333,342.316 55.333 C 342.142 55.333,342.000 55.412,342.000 55.508 C 342.000 55.777,341.183 56.530,341.009 56.422 C 340.923 56.369,340.643 56.597,340.385 56.929 C 340.127 57.261,339.695 57.760,339.423 58.039 C 339.152 58.317,338.913 58.660,338.892 58.802 C 338.871 58.943,338.737 59.124,338.594 59.204 C 338.451 59.284,338.333 59.496,338.333 59.675 C 338.333 59.854,338.254 60.000,338.157 60.000 C 338.060 60.000,338.020 60.065,338.069 60.144 C 338.182 60.326,337.544 61.667,337.345 61.667 C 337.264 61.667,337.237 61.817,337.285 62.000 C 337.334 62.186,337.290 62.333,337.186 62.333 C 337.084 62.333,337.000 62.521,337.000 62.750 C 337.000 62.979,336.944 63.167,336.875 63.167 C 336.806 63.167,336.738 63.373,336.723 63.625 C 336.708 63.877,336.616 64.495,336.518 64.999 C 336.421 65.502,336.300 66.327,336.251 66.832 C 336.201 67.337,336.120 68.125,336.071 68.583 C 336.019 69.063,336.131 70.408,336.334 71.750 C 336.528 73.033,336.693 74.290,336.700 74.542 C 336.708 74.794,336.779 75.000,336.857 75.000 C 336.936 75.000,337.000 75.188,337.000 75.417 C 337.000 75.646,337.084 75.833,337.186 75.833 C 337.290 75.833,337.334 75.980,337.285 76.167 C 337.237 76.350,337.264 76.500,337.345 76.500 C 337.544 76.500,338.182 77.841,338.069 78.023 C 338.020 78.102,338.060 78.167,338.157 78.167 C 338.254 78.167,338.333 78.308,338.333 78.481 C 338.333 78.654,338.518 78.916,338.745 79.064 C 338.996 79.229,339.119 79.431,339.060 79.584 C 339.007 79.721,339.044 79.833,339.142 79.833 C 339.381 79.833,341.417 81.841,341.550 82.208 C 341.609 82.369,341.803 82.500,341.983 82.500 C 342.163 82.500,342.412 82.603,342.538 82.728 C 342.663 82.853,342.931 83.008,343.133 83.073 C 343.335 83.137,343.500 83.301,343.500 83.438 C 343.500 83.574,343.574 83.640,343.665 83.584 C 343.824 83.486,344.996 83.949,345.167 84.178 C 345.281 84.331,346.906 84.645,349.000 84.919 C 350.843 85.159,353.587 85.023,354.541 84.643 C 354.792 84.542,355.148 84.500,355.332 84.548 C 355.516 84.596,355.667 84.567,355.667 84.484 C 355.667 84.401,355.854 84.333,356.083 84.333 C 356.313 84.333,356.500 84.250,356.500 84.149 C 356.500 84.047,356.613 84.008,356.750 84.060 C 356.887 84.113,357.000 84.097,357.000 84.026 C 357.000 83.813,358.321 83.172,358.565 83.266 C 358.689 83.314,358.835 83.236,358.890 83.093 C 358.945 82.950,359.104 82.833,359.245 82.833 C 359.385 82.833,359.500 82.728,359.500 82.600 C 359.500 82.471,359.726 82.287,360.002 82.191 C 360.538 82.004,362.500 80.160,362.500 79.844 C 362.500 79.510,363.030 78.833,363.291 78.833 C 363.487 78.833,363.522 78.965,363.449 79.417 C 363.397 79.737,363.417 80.000,363.493 80.000 C 363.569 80.000,363.676 80.319,363.730 80.708 C 363.820 81.357,364.131 83.914,364.156 84.208 C 364.162 84.277,367.274 84.333,371.073 84.333 L 377.979 84.333 377.892 83.708 C 377.844 83.365,377.739 82.688,377.658 82.204 C 377.576 81.721,377.555 81.102,377.609 80.829 C 377.672 80.514,377.640 80.333,377.521 80.333 C 377.418 80.333,377.333 80.075,377.333 79.758 C 377.333 79.442,377.257 78.823,377.164 78.383 C 377.071 77.943,376.919 76.946,376.826 76.167 C 376.733 75.387,376.574 74.150,376.473 73.417 C 376.372 72.683,376.274 71.746,376.256 71.333 C 376.239 70.921,376.164 70.449,376.091 70.284 C 376.018 70.119,375.998 69.688,376.047 69.325 C 376.095 68.963,376.067 68.667,375.984 68.667 C 375.901 68.667,375.833 68.367,375.833 68.000 C 375.833 67.633,375.897 67.333,375.976 67.333 C 376.054 67.333,376.082 66.958,376.038 66.500 C 375.985 65.957,376.021 65.667,376.141 65.667 C 376.253 65.667,376.318 65.326,376.308 64.792 C 376.300 64.310,376.379 63.354,376.483 62.667 C 376.588 61.979,376.744 60.796,376.830 60.038 C 376.915 59.279,377.019 58.604,377.059 58.538 C 377.100 58.471,377.185 57.929,377.249 57.333 C 377.314 56.737,377.431 56.171,377.510 56.074 C 377.589 55.978,377.650 55.565,377.647 55.158 C 377.643 54.750,377.721 53.854,377.821 53.167 C 378.013 51.843,378.073 51.400,378.357 49.207 C 378.455 48.451,378.602 47.790,378.684 47.739 C 378.766 47.689,378.833 46.751,378.833 45.657 L 378.833 43.667 372.177 43.667 C 368.515 43.667,365.486 43.723,365.445 43.792 M96.833 64.577 L 96.833 84.333 108.157 84.333 C 114.385 84.333,119.520 84.270,119.568 84.192 C 119.616 84.115,120.351 84.002,121.202 83.943 C 122.054 83.883,123.350 83.717,124.083 83.573 C 124.817 83.430,125.829 83.238,126.333 83.146 C 126.837 83.054,127.412 82.900,127.609 82.803 C 127.807 82.706,128.043 82.673,128.133 82.729 C 128.224 82.786,128.344 82.712,128.401 82.565 C 128.459 82.413,128.610 82.340,128.751 82.394 C 128.888 82.447,129.000 82.417,129.000 82.328 C 129.000 82.239,129.110 82.167,129.245 82.167 C 129.380 82.167,129.736 82.029,130.037 81.860 C 130.337 81.692,130.677 81.586,130.792 81.624 C 130.906 81.663,131.000 81.605,131.000 81.496 C 131.000 81.387,131.112 81.341,131.250 81.394 C 131.387 81.446,131.500 81.417,131.500 81.328 C 131.500 81.239,131.612 81.167,131.750 81.167 C 131.887 81.167,132.000 81.103,132.000 81.026 C 132.000 80.949,132.281 80.743,132.625 80.568 C 132.969 80.393,133.287 80.212,133.333 80.167 C 133.584 79.916,134.511 79.333,134.660 79.333 C 134.755 79.333,134.833 79.258,134.833 79.167 C 134.833 79.075,134.940 79.000,135.071 79.000 C 135.338 79.000,135.356 78.982,136.750 77.343 C 137.300 76.696,137.844 76.167,137.958 76.167 C 138.073 76.167,138.167 76.030,138.167 75.863 C 138.167 75.697,138.354 75.397,138.583 75.198 C 138.812 74.999,139.000 74.723,139.000 74.584 C 139.000 74.446,139.060 74.333,139.133 74.333 C 139.206 74.333,139.363 74.066,139.481 73.739 C 139.599 73.412,139.797 73.106,139.921 73.059 C 140.044 73.011,140.105 72.866,140.055 72.736 C 140.005 72.606,140.041 72.500,140.134 72.500 C 140.228 72.500,140.355 72.200,140.417 71.833 C 140.479 71.467,140.616 71.167,140.723 71.167 C 140.830 71.167,140.921 70.923,140.927 70.625 C 140.937 70.159,141.185 69.012,141.460 68.167 C 141.505 68.029,141.576 67.505,141.618 67.001 C 141.660 66.498,141.744 66.048,141.806 66.001 C 141.957 65.886,141.949 62.773,141.796 62.659 C 141.729 62.609,141.643 62.197,141.604 61.742 C 141.566 61.288,141.497 60.804,141.453 60.667 C 141.408 60.529,141.233 59.817,141.065 59.083 C 140.896 58.350,140.691 57.702,140.608 57.644 C 140.525 57.585,140.514 57.445,140.583 57.333 C 140.653 57.221,140.634 57.082,140.543 57.023 C 140.400 56.932,139.396 55.072,139.294 54.709 C 139.275 54.640,139.144 54.450,139.004 54.286 C 138.864 54.123,138.752 53.935,138.755 53.870 C 138.758 53.804,138.555 53.578,138.305 53.367 C 138.055 53.157,137.889 52.883,137.936 52.759 C 137.984 52.634,137.825 52.394,137.583 52.225 C 136.950 51.781,136.333 51.176,136.333 50.999 C 136.333 50.753,135.627 50.159,135.039 49.911 C 134.740 49.785,134.451 49.566,134.396 49.424 C 134.342 49.283,134.189 49.167,134.056 49.167 C 133.845 49.167,132.567 48.281,132.332 47.972 C 132.285 47.910,132.022 47.804,131.748 47.735 C 131.071 47.566,129.667 46.849,129.667 46.673 C 129.667 46.595,129.517 46.570,129.333 46.618 C 129.150 46.666,129.000 46.630,129.000 46.538 C 129.000 46.446,128.651 46.319,128.226 46.255 C 127.800 46.191,127.331 46.076,127.184 46.000 C 127.037 45.923,126.317 45.736,125.583 45.583 C 124.850 45.430,124.138 45.262,124.000 45.210 C 123.446 44.999,122.254 44.973,109.792 44.899 L 96.833 44.822 96.833 64.577 M161.500 53.103 C 161.362 53.138,160.688 53.238,160.000 53.324 C 158.153 53.557,156.817 53.830,156.225 54.097 C 155.936 54.227,155.664 54.333,155.620 54.333 C 155.576 54.333,155.250 54.460,154.895 54.614 C 154.540 54.768,154.156 54.878,154.042 54.857 C 153.927 54.836,153.833 54.903,153.833 55.007 C 153.833 55.110,153.740 55.161,153.625 55.120 C 153.510 55.079,152.939 55.376,152.356 55.780 C 151.773 56.185,151.210 56.486,151.106 56.451 C 151.002 56.416,150.783 56.606,150.620 56.873 C 150.457 57.139,150.233 57.328,150.124 57.291 C 149.926 57.225,149.674 57.378,149.284 57.800 C 149.173 57.919,148.987 58.106,148.870 58.216 C 147.866 59.158,147.667 59.398,147.667 59.670 C 147.667 59.841,147.535 60.079,147.375 60.199 C 147.215 60.319,147.060 60.524,147.032 60.655 C 146.966 60.958,146.356 61.835,145.969 62.184 C 145.806 62.330,145.719 62.496,145.775 62.552 C 145.885 62.663,145.022 65.529,144.837 65.667 C 144.674 65.788,144.699 72.167,144.862 72.167 C 144.938 72.167,145.000 72.392,145.000 72.667 C 145.000 72.942,145.056 73.167,145.125 73.168 C 145.332 73.170,145.880 75.139,145.760 75.451 C 145.699 75.610,145.699 75.689,145.761 75.628 C 145.894 75.495,146.333 75.899,146.333 76.155 C 146.333 76.253,146.403 76.333,146.489 76.333 C 146.664 76.333,146.918 76.979,146.862 77.279 C 146.841 77.387,146.970 77.521,147.148 77.578 C 147.326 77.634,147.549 77.900,147.643 78.170 C 147.852 78.771,149.929 80.799,150.404 80.867 C 150.594 80.894,150.825 81.087,150.916 81.296 C 151.008 81.505,151.195 81.650,151.333 81.619 C 151.621 81.555,153.000 82.434,153.000 82.682 C 153.000 82.773,153.094 82.837,153.208 82.823 C 153.543 82.782,154.167 83.025,154.167 83.196 C 154.167 83.282,154.243 83.306,154.337 83.248 C 154.529 83.129,155.500 83.513,155.500 83.707 C 155.500 83.777,155.650 83.833,155.833 83.833 C 156.017 83.833,156.167 83.910,156.167 84.003 C 156.167 84.101,156.343 84.129,156.583 84.068 C 156.829 84.007,157.000 84.035,157.000 84.138 C 157.000 84.234,157.131 84.312,157.292 84.312 C 157.781 84.310,159.059 84.518,159.500 84.671 C 161.081 85.217,166.952 85.122,170.250 84.497 C 170.800 84.392,171.400 84.288,171.583 84.266 C 171.924 84.223,171.991 84.203,173.000 83.842 C 173.321 83.727,173.771 83.593,174.000 83.544 C 174.229 83.495,174.492 83.397,174.583 83.326 C 174.675 83.255,175.031 83.144,175.375 83.080 C 175.719 83.015,176.000 82.891,176.000 82.804 C 176.000 82.716,176.150 82.692,176.333 82.750 C 176.527 82.812,176.667 82.780,176.667 82.674 C 176.667 82.575,176.873 82.403,177.125 82.294 C 177.377 82.185,177.867 81.921,178.215 81.708 C 178.562 81.495,178.918 81.366,179.006 81.420 C 179.094 81.475,179.167 81.440,179.167 81.343 C 179.167 81.246,179.234 81.167,179.316 81.167 C 179.398 81.167,179.698 80.949,179.982 80.683 L 180.500 80.200 180.500 76.693 C 180.500 73.323,180.389 72.538,180.000 73.167 C 179.929 73.282,179.795 73.329,179.703 73.272 C 179.610 73.215,179.490 73.285,179.435 73.428 C 179.381 73.571,179.260 73.641,179.168 73.584 C 179.076 73.527,179.000 73.541,179.000 73.616 C 179.000 73.789,178.242 74.127,177.540 74.267 C 177.243 74.326,177.000 74.441,177.000 74.521 C 177.000 74.601,176.865 74.667,176.700 74.667 C 176.535 74.667,176.329 74.737,176.242 74.824 C 175.979 75.084,172.702 75.837,172.376 75.711 C 172.258 75.666,172.039 75.732,171.889 75.856 C 171.518 76.164,164.843 76.187,164.475 75.882 C 164.342 75.771,164.079 75.721,163.891 75.770 C 163.699 75.820,163.438 75.748,163.295 75.604 C 163.154 75.464,162.994 75.395,162.937 75.452 C 162.802 75.587,161.500 75.154,161.500 74.973 C 161.500 74.896,161.387 74.833,161.250 74.833 C 161.112 74.833,161.000 74.754,161.000 74.657 C 161.000 74.560,160.936 74.520,160.859 74.568 C 160.781 74.616,160.575 74.526,160.400 74.368 C 160.226 74.210,159.873 73.946,159.616 73.781 C 159.359 73.616,159.101 73.354,159.044 73.199 C 158.986 73.044,158.798 72.816,158.626 72.692 C 158.447 72.563,158.336 72.315,158.366 72.109 L 158.417 71.750 169.898 71.707 L 181.380 71.664 181.256 70.207 C 181.187 69.406,181.120 68.412,181.107 68.000 C 181.094 67.587,181.029 67.210,180.964 67.160 C 180.898 67.111,180.828 66.811,180.809 66.493 C 180.790 66.176,180.728 65.842,180.672 65.750 C 180.616 65.658,180.433 65.133,180.265 64.583 C 180.097 64.033,179.920 63.471,179.870 63.333 C 179.821 63.196,179.796 62.990,179.814 62.875 C 179.833 62.760,179.763 62.667,179.660 62.667 C 179.557 62.667,179.505 62.573,179.545 62.458 C 179.585 62.344,179.396 61.937,179.124 61.555 C 178.852 61.173,178.680 60.780,178.741 60.680 C 178.803 60.581,178.741 60.500,178.604 60.500 C 178.468 60.500,178.306 60.343,178.245 60.150 C 178.184 59.958,177.991 59.658,177.817 59.484 C 177.643 59.309,177.500 59.051,177.500 58.909 C 177.500 58.615,176.773 57.890,176.341 57.753 C 176.183 57.702,175.948 57.456,175.818 57.206 C 175.487 56.564,175.227 56.321,174.971 56.417 C 174.746 56.501,173.500 55.437,173.500 55.161 C 173.500 55.078,173.391 55.052,173.258 55.103 C 173.125 55.154,172.919 55.134,172.800 55.059 C 172.681 54.984,172.546 54.911,172.500 54.897 C 171.885 54.713,171.667 54.603,171.667 54.481 C 171.667 54.400,171.517 54.333,171.333 54.333 C 171.150 54.333,171.000 54.250,171.000 54.149 C 171.000 54.047,170.897 54.004,170.770 54.052 C 170.644 54.101,170.462 54.062,170.365 53.965 C 170.268 53.868,169.903 53.765,169.553 53.736 C 169.203 53.707,168.654 53.611,168.333 53.523 C 166.869 53.119,162.484 52.850,161.500 53.103 M206.917 53.204 C 206.458 53.291,205.955 53.430,205.798 53.512 C 205.641 53.594,205.398 53.617,205.257 53.563 C 205.112 53.507,205.000 53.553,205.000 53.667 C 205.000 53.778,204.888 53.826,204.750 53.773 C 204.612 53.720,204.500 53.750,204.500 53.839 C 204.500 53.927,204.406 54.000,204.290 54.000 C 204.175 54.000,203.990 54.144,203.881 54.320 C 203.766 54.503,203.553 54.610,203.382 54.570 C 203.169 54.521,202.899 54.767,202.445 55.426 C 202.093 55.935,201.625 56.421,201.403 56.505 C 201.167 56.595,201.000 56.793,201.000 56.984 C 201.000 57.163,200.906 57.409,200.792 57.530 C 200.677 57.652,200.365 58.182,200.097 58.709 C 199.830 59.236,199.549 59.667,199.472 59.667 C 199.396 59.667,199.333 59.779,199.333 59.917 C 199.333 60.054,199.269 60.167,199.190 60.167 C 199.111 60.167,199.079 60.340,199.120 60.552 C 199.162 60.775,199.084 61.028,198.934 61.152 C 198.586 61.441,198.409 61.003,198.162 59.250 C 198.059 58.517,197.897 57.467,197.802 56.917 C 197.708 56.367,197.611 55.654,197.588 55.333 C 197.565 55.012,197.489 54.581,197.420 54.375 L 197.294 54.000 190.592 54.000 C 184.030 54.000,183.520 54.030,183.814 54.401 C 183.893 54.501,184.001 54.808,184.053 55.083 C 184.536 57.622,184.709 58.669,184.728 59.167 C 184.740 59.487,184.799 59.788,184.860 59.834 C 184.963 59.913,185.357 61.531,185.670 63.167 C 185.749 63.579,185.818 68.510,185.823 74.125 L 185.833 84.333 192.320 84.333 C 195.887 84.333,198.906 84.295,199.028 84.248 C 199.209 84.179,199.240 82.910,199.198 77.373 C 199.144 70.314,199.303 68.296,199.929 68.056 C 200.048 68.010,200.111 67.882,200.069 67.772 C 199.982 67.547,200.582 66.833,200.858 66.833 C 200.956 66.833,200.988 66.709,200.929 66.556 C 200.785 66.179,201.591 65.345,201.997 65.451 C 202.202 65.504,202.338 65.416,202.413 65.179 C 202.474 64.986,202.599 64.875,202.690 64.931 C 202.781 64.987,202.944 64.919,203.053 64.780 C 203.730 63.908,208.951 63.702,212.125 64.421 L 212.500 64.506 212.500 58.944 L 212.500 53.382 211.343 53.191 C 210.007 52.971,208.118 52.976,206.917 53.204 M227.583 53.095 C 227.290 53.215,225.267 53.521,224.792 53.517 C 224.540 53.515,224.333 53.594,224.333 53.693 C 224.333 53.791,224.188 53.834,224.011 53.788 C 223.818 53.738,223.650 53.803,223.594 53.949 C 223.542 54.084,223.408 54.164,223.295 54.126 C 223.183 54.089,222.939 54.199,222.754 54.371 C 222.570 54.543,222.287 54.650,222.126 54.608 C 221.949 54.562,221.833 54.624,221.833 54.766 C 221.833 54.895,221.758 55.009,221.667 55.021 C 221.575 55.032,221.438 55.051,221.363 55.063 C 221.288 55.074,221.107 55.196,220.961 55.333 C 220.815 55.471,220.448 55.771,220.145 56.000 C 219.842 56.229,219.243 56.773,218.814 57.208 C 218.384 57.644,217.952 58.000,217.853 58.000 C 217.754 58.000,217.622 58.206,217.559 58.458 C 217.445 58.919,216.859 59.868,216.625 59.972 C 216.556 60.003,216.500 60.172,216.500 60.347 C 216.500 60.523,216.425 60.667,216.333 60.667 C 216.242 60.667,216.179 60.723,216.193 60.792 C 216.223 60.931,216.092 61.316,215.738 62.131 C 215.607 62.432,215.500 62.790,215.500 62.928 C 215.500 63.065,215.388 63.220,215.251 63.273 C 215.083 63.337,215.035 63.497,215.103 63.767 C 215.158 63.987,215.136 64.167,215.055 64.167 C 214.974 64.167,214.897 64.485,214.883 64.875 C 214.869 65.265,214.779 66.371,214.682 67.333 C 214.559 68.555,214.558 69.611,214.680 70.833 C 214.776 71.796,214.857 72.865,214.860 73.208 C 214.864 73.552,214.943 73.833,215.036 73.833 C 215.129 73.833,215.170 74.020,215.126 74.249 C 215.081 74.485,215.144 74.746,215.273 74.853 C 215.398 74.956,215.500 75.135,215.500 75.250 C 215.500 75.365,215.683 75.872,215.907 76.378 C 216.130 76.884,216.268 77.343,216.212 77.399 C 216.157 77.454,216.190 77.500,216.286 77.500 C 216.382 77.500,216.505 77.631,216.559 77.792 C 216.675 78.138,216.977 78.610,217.363 79.051 C 217.516 79.226,217.606 79.465,217.562 79.580 C 217.478 79.798,217.912 80.333,218.171 80.333 C 218.371 80.333,219.167 81.142,219.167 81.344 C 219.167 81.434,219.348 81.590,219.569 81.691 C 219.791 81.791,220.009 82.015,220.054 82.187 C 220.100 82.364,220.283 82.500,220.476 82.500 C 220.663 82.500,220.877 82.597,220.950 82.715 C 221.023 82.833,221.552 83.149,222.125 83.417 C 222.698 83.686,223.167 83.972,223.167 84.054 C 223.167 84.135,223.279 84.159,223.417 84.106 C 223.554 84.054,223.667 84.076,223.667 84.156 C 223.667 84.236,224.057 84.356,224.535 84.421 C 225.013 84.487,225.519 84.603,225.660 84.679 C 226.566 85.165,231.793 85.140,233.041 84.643 C 233.292 84.543,233.632 84.496,233.795 84.538 C 233.959 84.581,234.185 84.518,234.298 84.397 C 234.410 84.277,234.614 84.221,234.751 84.274 C 234.888 84.326,235.000 84.288,235.000 84.190 C 235.000 84.091,235.112 84.054,235.250 84.106 C 235.387 84.159,235.500 84.120,235.500 84.019 C 235.500 83.918,235.838 83.676,236.252 83.482 C 236.666 83.287,237.043 83.065,237.091 82.988 C 237.138 82.911,237.287 82.890,237.421 82.941 C 237.554 82.993,237.707 82.923,237.759 82.786 C 237.812 82.649,238.056 82.496,238.302 82.446 C 238.596 82.387,238.827 82.179,238.972 81.844 C 239.095 81.563,239.285 81.333,239.395 81.333 C 239.505 81.333,239.718 81.127,239.868 80.875 C 240.184 80.346,241.459 79.070,241.565 79.177 C 241.658 79.272,242.106 81.957,242.252 83.292 L 242.366 84.333 249.202 84.333 L 256.038 84.333 255.922 83.125 C 255.859 82.460,255.793 81.542,255.776 81.083 C 255.760 80.625,255.696 80.172,255.635 80.076 C 255.573 79.981,255.482 79.606,255.433 79.243 C 255.301 78.286,254.849 75.118,254.636 73.667 C 254.535 72.979,254.459 72.044,254.467 71.587 C 254.475 71.130,254.396 70.705,254.291 70.640 C 254.017 70.471,254.038 67.773,254.315 67.439 C 254.451 67.275,254.489 66.994,254.417 66.669 C 254.355 66.388,254.384 65.803,254.481 65.370 C 254.578 64.938,254.860 63.083,255.106 61.250 C 255.353 59.417,255.603 57.879,255.660 57.833 C 255.718 57.788,255.773 57.375,255.783 56.917 C 255.792 56.458,255.854 55.615,255.920 55.042 L 256.040 54.000 249.387 54.000 C 245.168 54.000,242.672 53.939,242.566 53.833 C 242.455 53.722,242.298 54.429,242.095 55.958 C 241.671 59.144,241.656 59.174,240.919 58.358 C 240.597 58.002,240.333 57.604,240.333 57.475 C 240.333 57.193,239.752 56.667,239.439 56.667 C 239.317 56.667,238.999 56.459,238.733 56.206 C 238.201 55.699,236.591 54.667,236.331 54.667 C 236.241 54.667,236.167 54.598,236.167 54.513 C 236.167 54.429,235.937 54.309,235.655 54.248 C 235.374 54.186,235.106 54.035,235.058 53.911 C 235.011 53.788,234.868 53.728,234.740 53.777 C 234.611 53.826,234.111 53.753,233.628 53.614 C 231.851 53.103,228.305 52.799,227.583 53.095 M313.167 53.093 C 313.029 53.134,312.354 53.239,311.667 53.326 C 309.695 53.577,308.259 53.872,308.142 54.051 C 308.082 54.141,307.914 54.169,307.767 54.113 C 307.620 54.057,307.500 54.065,307.500 54.131 C 307.500 54.198,307.256 54.352,306.958 54.473 C 306.660 54.595,306.260 54.769,306.069 54.861 C 305.878 54.952,305.615 55.012,305.486 54.994 C 305.053 54.933,304.610 54.999,304.719 55.108 C 304.867 55.256,303.961 56.019,303.738 55.934 C 303.640 55.897,303.468 56.013,303.356 56.192 C 303.222 56.406,303.045 56.484,302.840 56.419 C 302.621 56.349,302.495 56.419,302.422 56.651 C 302.364 56.834,302.157 57.034,301.962 57.095 C 301.539 57.230,300.600 58.130,300.448 58.545 C 300.389 58.708,300.208 58.892,300.046 58.954 C 299.589 59.129,299.070 59.722,299.126 60.004 C 299.154 60.143,298.928 60.529,298.624 60.861 C 298.320 61.193,298.099 61.547,298.133 61.649 C 298.167 61.750,298.078 61.833,297.936 61.833 C 297.783 61.833,297.714 61.928,297.767 62.066 C 297.816 62.195,297.775 62.350,297.675 62.411 C 297.576 62.473,297.535 62.588,297.583 62.667 C 297.632 62.746,297.596 62.857,297.503 62.915 C 297.410 62.973,297.333 63.165,297.333 63.343 C 297.333 63.521,297.258 63.667,297.167 63.667 C 297.075 63.667,297.000 63.854,297.000 64.083 C 297.000 64.313,296.932 64.500,296.849 64.500 C 296.766 64.500,296.740 64.661,296.792 64.858 C 296.848 65.073,296.787 65.290,296.640 65.400 C 296.282 65.669,296.286 72.160,296.645 72.433 C 296.787 72.542,296.847 72.763,296.792 72.975 C 296.740 73.172,296.766 73.333,296.849 73.333 C 296.932 73.333,297.000 73.447,297.000 73.586 C 297.000 73.724,297.070 73.968,297.155 74.127 C 297.239 74.286,297.364 74.567,297.432 74.750 C 297.499 74.933,297.571 75.121,297.591 75.167 C 297.612 75.212,297.683 75.419,297.750 75.625 C 297.817 75.831,297.946 76.000,298.037 76.000 C 298.128 76.000,298.162 76.106,298.112 76.236 C 298.062 76.366,298.129 76.514,298.261 76.564 C 298.392 76.615,298.500 76.809,298.500 76.995 C 298.500 77.181,298.607 77.333,298.739 77.333 C 299.022 77.333,299.239 77.909,299.067 78.207 C 299.001 78.322,299.005 78.364,299.076 78.300 C 299.147 78.236,299.458 78.461,299.766 78.800 C 300.365 79.458,300.357 79.450,301.147 80.199 C 301.433 80.470,301.667 80.767,301.667 80.857 C 301.667 80.948,301.812 80.976,301.991 80.920 C 302.220 80.847,302.392 80.935,302.580 81.222 C 302.727 81.445,303.049 81.669,303.298 81.719 C 303.547 81.769,303.916 81.966,304.118 82.155 C 304.320 82.345,304.564 82.500,304.660 82.500 C 304.755 82.500,304.833 82.573,304.833 82.661 C 304.833 82.750,304.946 82.780,305.083 82.727 C 305.221 82.674,305.333 82.714,305.333 82.816 C 305.333 82.917,305.446 83.000,305.583 83.000 C 305.721 83.000,305.833 83.079,305.833 83.177 C 305.833 83.274,305.910 83.306,306.004 83.248 C 306.196 83.129,307.167 83.513,307.167 83.707 C 307.167 83.777,307.317 83.833,307.500 83.833 C 307.683 83.833,307.833 83.910,307.833 84.003 C 307.833 84.101,308.010 84.129,308.250 84.068 C 308.517 84.001,308.667 84.034,308.667 84.159 C 308.667 84.266,308.798 84.337,308.958 84.317 C 309.288 84.274,310.298 84.437,311.167 84.673 C 313.149 85.213,318.487 85.124,322.000 84.493 C 322.596 84.386,323.197 84.284,323.336 84.267 C 323.475 84.249,323.682 84.177,323.796 84.106 C 323.910 84.036,324.152 84.026,324.335 84.084 C 324.519 84.142,324.667 84.113,324.667 84.018 C 324.667 83.924,324.985 83.756,325.375 83.644 C 325.765 83.533,326.158 83.388,326.250 83.323 C 326.342 83.258,326.679 83.150,327.000 83.083 C 327.321 83.016,327.674 82.889,327.784 82.800 C 327.895 82.711,328.064 82.686,328.159 82.745 C 328.255 82.805,328.333 82.784,328.333 82.700 C 328.333 82.519,329.927 81.667,330.265 81.667 C 330.394 81.667,330.500 81.608,330.500 81.536 C 330.500 81.464,330.707 81.283,330.961 81.133 C 331.214 80.983,331.627 80.671,331.878 80.438 L 332.333 80.016 332.331 76.800 C 332.329 75.031,332.273 73.496,332.205 73.390 C 332.073 73.182,331.167 73.168,331.167 73.375 C 331.167 73.444,331.054 73.500,330.917 73.500 C 330.779 73.500,330.667 73.557,330.667 73.626 C 330.667 73.821,329.696 74.204,329.504 74.086 C 329.410 74.028,329.333 74.041,329.333 74.116 C 329.333 74.191,329.090 74.353,328.792 74.476 C 328.494 74.599,328.014 74.805,327.725 74.933 C 327.436 75.062,327.047 75.167,326.860 75.167 C 326.673 75.167,326.480 75.231,326.431 75.310 C 326.338 75.461,324.853 75.707,324.184 75.682 C 323.964 75.673,323.678 75.754,323.549 75.862 C 323.176 76.172,318.007 76.279,317.818 75.981 C 317.711 75.812,317.671 75.806,317.669 75.960 C 317.666 76.198,316.399 76.072,316.052 75.798 C 315.942 75.713,315.717 75.660,315.552 75.681 C 315.177 75.729,314.416 75.543,313.725 75.234 C 313.436 75.105,313.117 75.000,313.016 75.000 C 312.916 75.000,312.833 74.890,312.833 74.755 C 312.833 74.614,312.735 74.548,312.601 74.600 C 312.473 74.649,312.249 74.520,312.104 74.313 C 311.960 74.106,311.795 73.982,311.740 74.038 C 311.597 74.181,310.923 73.563,310.402 72.812 C 309.550 71.583,308.819 71.655,321.650 71.705 L 333.141 71.750 333.058 70.917 C 333.012 70.458,332.909 69.560,332.829 68.921 C 332.722 68.064,332.736 67.724,332.884 67.627 C 333.029 67.530,333.005 67.448,332.792 67.322 C 332.631 67.227,332.500 66.990,332.500 66.794 C 332.500 66.468,332.093 64.756,331.875 64.167 C 331.824 64.029,331.798 63.785,331.818 63.625 C 331.838 63.465,331.766 63.333,331.658 63.333 C 331.543 63.333,331.498 63.194,331.548 63.000 C 331.607 62.775,331.553 62.667,331.383 62.667 C 331.228 62.667,331.168 62.571,331.227 62.417 C 331.280 62.279,331.250 62.167,331.161 62.167 C 331.073 62.167,331.000 62.054,331.000 61.917 C 331.000 61.779,330.934 61.667,330.853 61.667 C 330.772 61.667,330.661 61.498,330.607 61.292 C 330.485 60.824,330.480 60.814,330.171 60.453 C 330.031 60.290,329.934 60.122,329.955 60.082 C 329.975 60.041,329.807 59.822,329.580 59.595 C 329.352 59.368,329.167 59.058,329.167 58.907 C 329.167 58.557,326.971 56.371,326.707 56.459 C 326.598 56.495,326.316 56.332,326.080 56.096 C 325.845 55.860,325.580 55.667,325.492 55.667 C 325.405 55.667,325.333 55.592,325.333 55.500 C 325.333 55.408,325.226 55.333,325.095 55.333 C 324.964 55.333,324.758 55.240,324.637 55.125 C 324.516 55.010,324.342 54.913,324.250 54.909 C 323.923 54.894,322.667 54.295,322.667 54.154 C 322.667 54.075,322.555 54.053,322.418 54.106 C 322.276 54.160,322.126 54.087,322.067 53.935 C 321.996 53.750,321.844 53.699,321.566 53.769 C 321.346 53.824,321.167 53.799,321.167 53.714 C 321.167 53.628,320.923 53.550,320.625 53.539 C 320.327 53.529,319.596 53.441,319.000 53.343 C 317.835 53.153,313.578 52.970,313.167 53.093 M260.498 53.495 C 260.618 53.721,260.659 58.609,260.628 69.079 L 260.583 84.333 267.250 84.333 L 273.917 84.333 273.917 68.750 C 273.917 60.179,273.894 53.167,273.867 53.167 C 273.839 53.167,273.599 53.279,273.333 53.417 C 273.066 53.555,272.353 53.699,271.748 53.738 C 271.143 53.777,270.558 53.880,270.449 53.968 C 269.550 54.686,264.129 54.637,263.886 53.907 C 263.854 53.812,263.567 53.765,263.247 53.802 C 262.928 53.839,262.667 53.802,262.667 53.718 C 262.667 53.635,262.414 53.596,262.105 53.632 C 261.792 53.669,261.317 53.581,261.030 53.432 C 260.364 53.088,260.285 53.097,260.498 53.495 M122.375 57.087 C 122.902 57.248,123.333 57.444,123.333 57.523 C 123.333 57.602,123.483 57.667,123.667 57.667 C 123.850 57.667,124.000 57.739,124.000 57.828 C 124.000 57.917,124.112 57.946,124.250 57.894 C 124.388 57.841,124.500 57.873,124.500 57.964 C 124.500 58.056,124.675 58.174,124.888 58.228 C 125.369 58.349,126.833 59.748,126.833 60.086 C 126.833 60.222,126.917 60.333,127.019 60.333 C 127.126 60.333,127.167 60.482,127.114 60.683 C 127.064 60.876,127.064 60.992,127.114 60.941 C 127.272 60.783,127.667 61.293,127.667 61.655 C 127.667 61.845,127.735 62.000,127.818 62.000 C 128.349 62.000,128.369 66.198,127.840 66.726 C 127.745 66.822,127.667 67.035,127.667 67.200 C 127.667 67.365,127.587 67.500,127.490 67.500 C 127.393 67.500,127.358 67.572,127.412 67.660 C 127.508 67.814,127.262 68.362,126.917 68.765 C 126.825 68.872,126.640 69.118,126.505 69.313 C 126.370 69.507,126.164 69.667,126.047 69.667 C 125.929 69.667,125.833 69.760,125.832 69.875 C 125.832 69.990,125.625 70.212,125.374 70.370 C 125.122 70.528,124.804 70.730,124.667 70.818 C 124.080 71.195,123.299 71.476,123.075 71.390 C 122.942 71.339,122.833 71.378,122.833 71.476 C 122.833 71.946,121.373 72.071,115.833 72.077 L 110.250 72.083 110.207 64.511 C 110.173 58.568,110.208 56.907,110.373 56.794 C 110.793 56.505,121.311 56.762,122.375 57.087 M165.630 61.620 C 166.129 61.777,166.574 61.998,166.616 62.109 C 166.659 62.221,166.795 62.274,166.918 62.226 C 167.041 62.179,167.269 62.334,167.423 62.570 C 167.578 62.807,167.809 63.000,167.936 63.000 C 168.063 63.000,168.167 63.141,168.167 63.314 C 168.167 63.487,168.313 63.666,168.491 63.713 C 168.832 63.802,169.725 65.438,169.569 65.689 C 169.406 65.954,158.003 65.869,157.901 65.603 C 157.795 65.325,158.781 63.669,159.056 63.662 C 159.163 63.660,159.438 63.399,159.667 63.083 C 159.896 62.768,160.211 62.507,160.367 62.505 C 160.523 62.502,160.722 62.371,160.810 62.214 C 161.245 61.437,163.981 61.100,165.630 61.620 M317.340 61.625 C 317.891 61.787,318.333 62.013,318.333 62.132 C 318.333 62.251,318.427 62.336,318.542 62.321 C 318.962 62.266,319.167 62.338,319.170 62.542 C 319.173 62.787,319.889 63.500,320.132 63.500 C 320.324 63.500,321.000 64.726,321.000 65.075 C 321.000 65.202,321.088 65.335,321.196 65.371 C 321.304 65.407,321.337 65.526,321.270 65.635 C 321.060 65.974,309.667 65.914,309.667 65.574 C 309.667 65.138,310.333 63.823,310.608 63.718 C 310.938 63.591,311.667 62.866,311.667 62.665 C 311.667 62.478,312.332 62.101,312.336 62.286 C 312.337 62.358,312.409 62.306,312.495 62.170 C 312.968 61.421,315.628 61.122,317.340 61.625 M44.167 62.350 C 44.167 62.432,44.354 62.500,44.583 62.500 C 44.813 62.500,45.000 62.578,45.000 62.674 C 45.000 62.770,45.094 62.833,45.208 62.814 C 45.508 62.766,46.061 63.021,46.217 63.279 C 46.290 63.401,46.459 63.500,46.592 63.500 C 46.725 63.500,46.833 63.574,46.833 63.665 C 46.833 63.756,47.058 64.031,47.333 64.276 C 47.608 64.521,47.833 64.822,47.833 64.944 C 47.833 65.067,47.907 65.167,47.997 65.167 C 48.087 65.167,48.206 65.349,48.262 65.571 C 48.318 65.794,48.468 66.016,48.596 66.065 C 48.732 66.117,48.784 66.267,48.723 66.427 C 48.665 66.578,48.717 66.762,48.839 66.837 C 49.136 67.020,49.152 69.803,48.858 69.985 C 48.747 70.054,48.703 70.235,48.762 70.387 C 48.827 70.557,48.770 70.701,48.616 70.761 C 48.477 70.814,48.318 71.040,48.262 71.262 C 48.206 71.485,48.087 71.667,47.997 71.667 C 47.907 71.667,47.833 71.752,47.833 71.857 C 47.833 71.962,47.608 72.262,47.333 72.525 C 47.058 72.788,46.833 73.085,46.833 73.186 C 46.833 73.287,46.725 73.327,46.592 73.276 C 46.448 73.221,46.311 73.308,46.253 73.491 C 46.157 73.792,45.618 74.061,45.208 74.011 C 45.094 73.997,45.000 74.064,45.000 74.159 C 45.000 74.255,44.813 74.333,44.583 74.333 C 44.354 74.333,44.167 74.401,44.167 74.484 C 44.167 74.677,41.023 74.671,40.903 74.478 C 40.854 74.399,40.631 74.333,40.407 74.333 C 40.183 74.333,40.000 74.250,40.000 74.149 C 40.000 74.047,39.887 74.008,39.750 74.060 C 39.595 74.120,39.500 74.059,39.500 73.902 C 39.500 73.762,39.419 73.697,39.320 73.758 C 39.221 73.819,39.031 73.714,38.899 73.525 C 38.761 73.329,38.552 73.221,38.412 73.275 C 38.262 73.332,38.167 73.270,38.167 73.116 C 38.167 72.977,37.951 72.681,37.687 72.459 C 37.423 72.237,37.155 71.893,37.092 71.694 C 37.029 71.496,36.908 71.333,36.822 71.333 C 36.737 71.333,36.667 71.221,36.667 71.083 C 36.667 70.946,36.592 70.833,36.500 70.833 C 36.408 70.833,36.333 70.650,36.333 70.427 C 36.333 70.203,36.267 69.978,36.185 69.928 C 35.988 69.806,35.983 66.833,36.180 66.833 C 36.264 66.833,36.333 66.646,36.333 66.417 C 36.333 66.188,36.400 66.000,36.481 66.000 C 36.562 66.000,36.672 65.869,36.726 65.708 C 36.877 65.257,37.207 64.791,37.708 64.318 C 37.960 64.081,38.167 63.800,38.167 63.693 C 38.167 63.587,38.319 63.500,38.505 63.500 C 38.691 63.500,38.887 63.387,38.940 63.250 C 38.992 63.112,39.140 63.000,39.268 63.000 C 39.396 63.000,39.500 62.917,39.500 62.816 C 39.500 62.714,39.612 62.674,39.750 62.727 C 39.887 62.780,40.000 62.750,40.000 62.661 C 40.000 62.573,40.188 62.500,40.417 62.500 C 40.646 62.500,40.833 62.431,40.833 62.346 C 40.833 62.261,41.583 62.193,42.500 62.196 C 43.417 62.198,44.167 62.267,44.167 62.350 M65.333 62.346 C 65.333 62.431,65.479 62.500,65.657 62.500 C 65.835 62.500,66.025 62.572,66.079 62.659 C 66.133 62.747,66.287 62.777,66.422 62.725 C 66.557 62.673,66.667 62.714,66.667 62.816 C 66.667 62.917,66.761 63.000,66.877 63.000 C 66.992 63.000,67.179 63.148,67.292 63.329 C 67.412 63.521,67.601 63.617,67.749 63.561 C 67.905 63.501,68.000 63.560,68.000 63.717 C 68.000 63.857,68.216 64.152,68.480 64.374 C 68.744 64.596,69.012 64.941,69.075 65.139 C 69.138 65.338,69.259 65.500,69.345 65.500 C 69.430 65.500,69.500 65.612,69.500 65.750 C 69.500 65.887,69.584 66.000,69.686 66.000 C 69.789 66.000,69.834 66.146,69.787 66.327 C 69.740 66.507,69.795 66.732,69.910 66.828 C 70.223 67.088,70.210 69.827,69.894 69.948 C 69.750 70.004,69.695 70.161,69.755 70.349 C 69.816 70.540,69.719 70.803,69.504 71.035 C 69.311 71.241,69.112 71.578,69.060 71.782 C 69.009 71.987,68.841 72.195,68.686 72.244 C 68.532 72.293,68.274 72.555,68.114 72.826 C 67.942 73.118,67.729 73.283,67.593 73.231 C 67.457 73.178,67.317 73.287,67.250 73.500 C 67.181 73.717,67.044 73.822,66.902 73.767 C 66.763 73.714,66.667 73.781,66.667 73.929 C 66.667 74.068,66.573 74.166,66.458 74.148 C 66.244 74.113,65.780 74.254,65.323 74.494 C 64.964 74.682,62.025 74.675,61.908 74.487 C 61.856 74.402,61.668 74.333,61.490 74.333 C 61.312 74.333,61.167 74.250,61.167 74.149 C 61.167 74.047,61.051 74.009,60.910 74.063 C 60.767 74.118,60.614 74.057,60.563 73.924 C 60.513 73.794,60.373 73.726,60.251 73.773 C 60.125 73.821,59.982 73.705,59.917 73.500 C 59.854 73.303,59.712 73.178,59.600 73.221 C 59.488 73.264,59.251 73.081,59.073 72.815 C 58.895 72.549,58.618 72.289,58.456 72.237 C 58.294 72.185,58.207 72.069,58.263 71.979 C 58.318 71.889,58.226 71.688,58.057 71.531 C 57.628 71.133,57.303 70.517,57.422 70.325 C 57.476 70.237,57.412 70.055,57.279 69.922 C 56.955 69.598,56.987 67.048,57.318 66.843 C 57.442 66.766,57.493 66.624,57.432 66.525 C 57.303 66.316,57.615 65.712,58.068 65.292 C 58.244 65.130,58.348 64.959,58.300 64.912 C 58.172 64.783,59.514 63.489,59.673 63.587 C 59.748 63.634,59.857 63.520,59.916 63.336 C 59.975 63.151,60.130 63.000,60.261 63.000 C 60.393 63.000,60.500 62.920,60.500 62.822 C 60.500 62.720,60.642 62.689,60.833 62.750 C 61.025 62.811,61.167 62.780,61.167 62.678 C 61.167 62.580,61.312 62.500,61.490 62.500 C 61.668 62.500,61.855 62.432,61.906 62.350 C 62.029 62.151,65.333 62.147,65.333 62.346 M236.080 63.384 C 236.199 63.547,236.361 63.668,236.440 63.655 C 236.708 63.610,237.333 63.871,237.333 64.029 C 237.333 64.116,237.406 64.141,237.495 64.086 C 237.799 63.899,239.000 64.809,239.000 65.227 C 239.000 65.365,239.146 65.524,239.325 65.581 C 239.503 65.637,239.693 65.822,239.747 65.991 C 239.801 66.159,239.997 66.337,240.185 66.386 C 240.372 66.435,240.565 66.631,240.615 66.821 C 240.665 67.011,240.772 67.167,240.853 67.167 C 240.934 67.167,241.000 67.279,241.000 67.417 C 241.000 67.554,241.080 67.667,241.178 67.667 C 241.276 67.667,241.311 67.807,241.256 67.980 C 241.193 68.178,241.251 68.330,241.412 68.392 C 241.741 68.518,241.760 69.641,241.435 69.766 C 241.301 69.817,241.239 69.991,241.288 70.177 C 241.334 70.355,241.288 70.500,241.186 70.500 C 241.084 70.500,241.000 70.612,241.000 70.750 C 241.000 70.887,240.925 71.000,240.833 71.000 C 240.742 71.000,240.667 71.110,240.667 71.244 C 240.667 71.378,240.511 71.572,240.321 71.673 C 239.886 71.906,239.518 72.272,239.028 72.961 C 238.817 73.257,238.553 73.500,238.442 73.500 C 238.331 73.500,238.137 73.643,238.011 73.818 C 237.885 73.993,237.681 74.098,237.557 74.050 C 237.434 74.003,237.333 74.047,237.333 74.149 C 237.333 74.250,237.183 74.333,237.000 74.333 C 236.817 74.333,236.667 74.408,236.667 74.500 C 236.667 74.592,236.532 74.667,236.367 74.667 C 236.202 74.667,235.973 74.760,235.858 74.875 C 235.523 75.211,231.864 75.162,231.612 74.819 C 231.504 74.673,231.323 74.586,231.208 74.624 C 231.094 74.663,231.000 74.621,231.000 74.532 C 231.000 74.443,230.813 74.322,230.583 74.265 C 230.354 74.207,230.167 74.066,230.167 73.951 C 230.167 73.739,229.807 73.393,229.260 73.080 C 227.909 72.306,227.457 65.833,228.754 65.833 C 228.869 65.833,228.953 65.712,228.940 65.565 C 228.927 65.417,229.064 65.211,229.244 65.106 C 229.424 65.002,229.816 64.673,230.116 64.375 C 230.416 64.077,230.731 63.833,230.817 63.833 C 230.902 63.833,230.997 63.775,231.028 63.703 C 231.338 62.976,235.586 62.708,236.080 63.384 M357.527 63.294 C 357.641 63.407,357.868 63.500,358.033 63.500 C 358.198 63.500,358.333 63.575,358.333 63.667 C 358.333 63.758,358.446 63.833,358.583 63.833 C 358.721 63.833,358.833 63.916,358.833 64.018 C 358.833 64.119,358.938 64.162,359.065 64.113 C 359.192 64.065,359.447 64.164,359.631 64.336 C 359.814 64.507,360.008 64.603,360.060 64.551 C 360.113 64.498,360.284 64.677,360.439 64.948 C 360.595 65.220,360.977 65.608,361.287 65.812 C 361.724 66.098,361.831 66.264,361.760 66.549 C 361.711 66.751,361.711 66.828,361.762 66.719 C 361.828 66.577,361.948 66.600,362.187 66.802 C 362.611 67.161,363.063 68.097,362.922 68.325 C 362.862 68.421,362.904 68.500,363.013 68.500 C 363.507 68.500,362.786 71.067,362.233 71.280 C 362.106 71.328,362.038 71.426,362.081 71.497 C 362.226 71.731,359.901 73.803,359.333 73.946 C 359.104 74.004,358.879 74.096,358.833 74.151 C 358.634 74.388,357.973 74.670,357.827 74.579 C 357.739 74.525,357.667 74.556,357.667 74.649 C 357.667 74.920,356.513 75.165,355.233 75.166 C 354.047 75.167,353.000 74.927,353.000 74.656 C 353.000 74.576,352.887 74.554,352.750 74.606 C 352.613 74.659,352.500 74.627,352.500 74.536 C 352.500 74.444,352.313 74.322,352.083 74.265 C 351.801 74.194,351.662 74.040,351.654 73.788 C 351.646 73.584,351.603 73.508,351.558 73.619 C 351.443 73.902,350.374 72.801,350.238 72.260 C 350.178 72.024,350.062 71.788,349.979 71.737 C 349.896 71.686,349.876 71.565,349.935 71.470 C 349.994 71.374,349.939 71.232,349.813 71.154 C 349.495 70.958,349.481 67.218,349.797 67.022 C 349.916 66.949,349.964 66.765,349.904 66.612 C 349.844 66.455,349.878 66.333,349.982 66.333 C 350.084 66.333,350.167 66.185,350.167 66.004 C 350.167 65.823,350.354 65.551,350.583 65.401 C 350.813 65.251,351.000 65.057,351.000 64.969 C 351.000 64.751,351.434 64.333,351.660 64.333 C 351.761 64.333,351.887 64.221,351.940 64.083 C 351.992 63.946,352.134 63.833,352.254 63.833 C 352.374 63.833,352.497 63.775,352.528 63.703 C 352.807 63.049,356.943 62.710,357.527 63.294 " stroke="none" fill="#ffffff" fill-rule="evenodd"></path></g></svg>