<svg xmlns="http://www.w3.org/2000/svg" xmlns:xlink="http://www.w3.org/1999/xlink" id="svg" version="1.1" viewBox="140.23 53.66 119.57 117.13"><g id="svgg"><path id="path0" d="M229.855 53.960 C 225.005 54.633,220.484 56.706,217.283 59.724 C 214.882 61.987,213.356 64.125,210.095 69.792 C 205.573 77.652,202.611 79.784,197.291 79.008 C 192.924 78.372,190.314 76.477,182.657 68.384 C 174.675 59.946,170.596 57.033,164.594 55.483 C 152.428 52.340,145.714 59.473,142.401 79.063 C 139.745 94.765,139.471 126.188,141.908 135.625 C 148.056 159.431,168.633 171.448,202.083 170.767 C 235.029 170.096,254.436 157.963,258.769 135.328 C 260.610 125.711,259.882 95.357,257.487 81.875 C 253.740 60.778,244.920 51.868,229.855 53.960 M184.005 106.158 C 190.858 107.821,194.813 115.453,192.180 121.934 C 188.640 130.644,176.386 132.125,170.944 124.499 C 164.384 115.306,172.829 103.446,184.005 106.158 M223.797 106.158 C 230.650 107.821,234.605 115.453,231.972 121.934 C 228.432 130.644,216.177 132.125,210.736 124.499 C 204.175 115.306,212.621 103.446,223.797 106.158 " stroke="none" fill="#706fe3" fill-rule="evenodd"/></g></svg>